<?xml version="1.0" encoding="UTF-8"?>
<!DOCTYPE svg  PUBLIC '-//W3C//DTD SVG 1.1//EN'  'http://www.w3.org/Graphics/SVG/1.1/DTD/svg11.dtd'>
<svg clip-rule="evenodd" fill-rule="evenodd" image-rendering="optimizeQuality" shape-rendering="geometricPrecision" text-rendering="geometricPrecision" version="1.1" viewBox="0 0 481 571" xmlns="http://www.w3.org/2000/svg">
<path d="m236.5 13.5c1.699-0.1602 3.366 0.0065 5 0.5 14.238 9.2875 29.238 17.288 45 24 53.371 21.609 108.7 35.609 166 42 6.859 2.8589 11.692 7.6923 14.5 14.5 2.059 44.668 1.726 89.335-1 134-9.978 122.18-62.811 220.34-158.5 294.5-19.128 14.076-39.461 26.409-61 37-2.244 0.906-4.577 1.406-7 1.5-55.306-23.589-101.81-58.922-139.5-106-55.266-68.752-84.766-147.59-88.5-236.5 0.6339-4.84 1.3006-9.674 2-14.5 0.3678-1.41 1.2011-2.41 2.5-3 1.6667 1.333 3.3333 2.667 5 4 5.6568 12.321 14.157 22.155 25.5 29.5 1.8589 1.558 3.3589 3.391 4.5 5.5 2.74 24.7 7.4067 49.034 14 73 7.6846 23.732 17.685 46.399 30 68 1.1667 1.167 2.3333 2.333 3.5 3.5 60.316 2.761 106.82-20.739 139.5-70.5 0.991-1.947 1.325-3.947 1-6-15.509 7.902-32.176 11.235-50 10-35.078 0.552-61.245-14.281-78.5-44.5l1-1c9.834 2.624 19.834 4.957 30 7 19.965 2.856 39.298 0.522 58-7 2.493-2.08 5.159-3.914 8-5.5 1.623-1.613 2.79-3.28 3.5-5-1.46-1.922-3.127-2.589-5-2-20.406 6.126-41.239 6.626-62.5 1.5-55.984-12.63-93.151-46.463-111.5-101.5-2.3244-7.854-2.991-15.854-2-24 0.3076-0.808 0.8076-1.475 1.5-2 5.812 2.944 10.312 7.277 13.5 13 32.737 32.24 71.904 47.073 117.5 44.5 2.956-0.962 5.29-2.628 7-5-1.02-2.026-2.687-3.359-5-4-44.359-7.094-81.859-26.927-112.5-59.5-12.995-16.827-21.829-35.66-26.5-56.5 0.1448-1.2259 0.4781-2.3926 1-3.5-2.847-13.108-2.347-26.108 1.5-39 1.1662-3.0032 2.8328-5.6698 5-8 1.5122 0.7567 2.8455 1.7567 4 3 26 42 60.5 75.166 103.5 99.5 24.433 12.084 49.1 23.751 74 35 19.999 10.666 36.166 25.5 48.5 44.5 3.202 6.617 6.202 13.284 9 20 1.589-3.257 3.089-6.59 4.5-10-0.333-0.667-0.667-1.333-1-2 0.803-7.951 1.303-15.951 1.5-24 0.747-25.313 12.581-43.146 35.5-53.5 17.25-4.89 32.917-1.89 47 9 9.358 1.684 18.024 5.018 26 10 1.851 1.684 3.518 3.517 5 5.5l-1.5 3c-26.236 4.753-36.903 20.42-32 47 2.867 13.134 6.2 26.134 10 39 7.71 52.55-8.79 95.717-49.5 129.5-35.685 27.792-76.351 42.792-122 45-15.586 11.915-30.586 24.582-45 38 25.178 27.523 54.678 49.356 88.5 65.5 72.301-37.968 124.97-94.301 158-169 22.285-54.76 33.285-111.76 33-171 0.667-21.333 0.667-42.667 0-64-67.083-7.696-130.75-26.696-191-57-29.276 14.425-59.61 26.092-91 35-3.212-1.3554-6.378-2.8554-9.5-4.5-5.874-5.5429-12.041-10.71-18.5-15.5-1.586-2.1705-2.92-4.5038-4-7-0.798-1.7588-0.631-3.4255 0.5-5 36.92-8.9175 72.253-22.084 106-39.5 4.559-3.4371 9.226-6.6037 14-9.5z" fill="#fefffe" opacity=".929"/>
</svg>
