<svg xmlns="http://www.w3.org/2000/svg" fill="none" viewBox="0 0 591 163"><g fill="#fff" clip-path="url(#a)"><path d="M8.099 155.84c0 1.349-.427 2.385-1.271 3.104-.85.719-1.844 1.083-2.98 1.083-1.14 0-2.135-.364-2.979-1.083q-1.271-1.08-1.27-3.104V71.403q-.001-1.915 1.27-3.104c.844-.802 1.818-1.208 2.917-1.208h33.46q8.249.001 14.144 3.229 5.89 3.234 9.375 8.5 3.5 5.252 4.688 11.604a33.3 33.3 0 0 1 0 12.604 30.5 30.5 0 0 1-4.75 11.54q-3.548 5.275-9.375 8.5c-3.891 2.158-8.584 3.23-14.083 3.23H25.078v29.542c0 1.349-.448 2.385-1.334 3.104-.89.719-1.885 1.083-2.979 1.083-1.099 0-2.094-.364-2.98-1.083q-1.334-1.08-1.332-3.104v-33.855q-.002-1.767 1.333-2.98c.885-.801 1.88-1.207 2.98-1.207h16.478c4.568 0 8.354-1.011 11.354-3.042q4.499-3.04 6.77-7.854 2.292-4.832 2.293-10.271c0-3.636-.766-7.063-2.292-10.271-1.516-3.208-3.77-5.823-6.77-7.854q-4.501-3.063-11.355-3.063H8.1zm27.625-46.541h-3.75c-1.39 0-2.615-.271-3.667-.813q-1.584-.83-1.583-3.354-.001-2.665 1.583-3.479c1.052-.552 2.276-.813 3.667-.771q2.1.063 3.75.062 2.164.002 3.292-1.27a4.3 4.3 0 0 0 1.145-2.98c0-1.135-.385-2.13-1.145-2.979-.75-.844-1.85-1.27-3.292-1.27h-14.96q-2.024.001-3.103-1.271-1.085-1.267-1.084-2.98 0-1.704 1.083-2.979c.72-.844 1.756-1.27 3.105-1.27h14.959q5.078 0 8.125 2.541c2.026 1.698 3.396 3.813 4.104 6.354a13.7 13.7 0 0 1 0 7.604q-1.064 3.795-4.104 6.334-3.047 2.522-8.125 2.521M88.858 155.97c0 1.349-.427 2.385-1.27 3.104-.85.719-1.845 1.083-2.98 1.083-1.14 0-2.136-.364-2.98-1.083q-1.271-1.08-1.27-3.104V71.136c0-1.177.443-2.167 1.333-2.958.886-.802 1.88-1.209 2.98-1.209h33.332q7.749 0 13.834 3.417 6.078 3.421 9.937 9 3.874 5.586 5.083 12.312 1.205 6.711-.708 13.5-1.897 6.775-7.333 12.354a30.5 30.5 0 0 1-6.167 4.771 28.5 28.5 0 0 1-7.167 2.958l19.667 28.146q1.14 1.649.688 3.312c-.292 1.099-.886 1.959-1.77 2.584a4.42 4.42 0 0 1-2.98.833c-1.099-.083-2.032-.677-2.792-1.771l-23.459-33.604q-1.898-2.54-.562-4.75 1.329-2.227 3.73-2.229c3.718 0 7.02-.818 9.895-2.459 2.875-1.651 5.24-3.812 7.104-6.479a21.5 21.5 0 0 0 3.604-8.875q.829-4.875-.563-9.687-1.397-4.829-5.333-8.75c-1.849-1.943-4.04-3.443-6.583-4.5q-3.813-1.603-8.125-1.604H88.857v80.52zm27.75-46.667c-.584 0-1.261.021-2.021.063q-1.147.062-2.146-.063c-2.208-.166-3.698-.922-4.458-2.271q-1.125-2.038-.063-4.062c.719-1.344 2.229-2.021 4.521-2.021q2.017 0 3.979-.062 1.978-.062 3.292-.959c.885-.593 1.333-1.692 1.333-3.291 0-1.277-.448-2.313-1.333-3.105a4.45 4.45 0 0 0-3.104-1.208h-15.083q-2.024.001-3.104-1.27c-.724-.844-1.083-1.84-1.083-2.98q0-1.704 1.083-2.98c.719-.843 1.755-1.27 3.104-1.27h15.083c2.625 0 4.885.64 6.792 1.917q2.852 1.898 4.437 4.812c1.052 1.948 1.583 4.016 1.583 6.208q0 5.313-3.812 8.938c-2.531 2.406-5.531 3.604-9 3.604m7.875 44.126q1.14 1.648.687 3.312c-.291 1.099-.885 1.958-1.771 2.583a4.4 4.4 0 0 1-2.979.834q-1.65-.128-2.916-1.771l-11.667-16.875v14.459c0 1.349-.427 2.385-1.271 3.104-.849.719-1.844 1.083-2.979 1.083-1.141 0-2.136-.364-2.98-1.083q-1.271-1.08-1.27-3.104v-27.645q-.002-2.267 1.458-3.417c.969-.76 2.068-1.104 3.292-1.021 1.234.083 2.234.677 3 1.771zM251.38 98.905q.516 1.649-.25 3.25-.75 1.584-2.541 2.083-1.65.501-3.292-.312-1.647-.829-2.146-2.48c-2.708-8.275-7.614-15-14.708-20.166q-4.962-3.54-11.041-5.562-6.086-2.041-12.813-2.042-11.272 0-19.396 4.313c-5.406 2.874-9.739 6.661-13 11.353-3.25 4.698-5.406 9.875-6.458 15.543a45.8 45.8 0 0 0 0 16.978c1.052 5.667 3.208 10.849 6.458 15.542q4.891 7.022 13 11.333 8.124 4.313 19.396 4.313 6.727.001 12.813-2.021 6.08-2.039 11.041-5.584c7.094-4.984 12-11.708 14.708-20.166.334-1.177 1.047-2.021 2.146-2.521 1.094-.51 2.193-.604 3.292-.271q1.79.525 2.541 2.104.766 1.588.25 3.354a49.6 49.6 0 0 1-6.979 13.708c-3.041 4.224-6.635 7.813-10.771 10.77a55 55 0 0 1-13.5 6.835c-4.864 1.692-10.041 2.54-15.541 2.54q-12.045 0-21.104-4.061c-6.041-2.71-11.073-6.36-15.083-10.96a46.6 46.6 0 0 1-9-15.54 54.1 54.1 0 0 1-2.979-17.812c0-6.125.99-12.063 2.979-17.812a46.4 46.4 0 0 1 9-15.521c4.011-4.61 9.042-8.271 15.083-10.98s13.073-4.062 21.104-4.062c5.5 0 10.677.807 15.541 2.417a50.4 50.4 0 0 1 13.5 6.854 49.6 49.6 0 0 1 10.771 10.833 48 48 0 0 1 6.979 13.749zm-72.896 29.812q-.897-1.665-.458-3.313c.302-1.093.964-1.937 1.979-2.52q1.642-.891 3.292-.438c1.094.292 1.943.99 2.542 2.083a26.4 26.4 0 0 0 3.604 4.5q2.102 2.088 4.5 3.48c3.219 2.031 6.771 3.041 10.646 3.041q4.578.001 8.562-1.708c2.667-1.136 4.927-2.719 6.792-4.75q3.039-2.916 4.75-6.979c1.135-2.709 1.708-5.625 1.708-8.75 0-3.042-.573-5.907-1.708-8.604-1.141-2.709-2.724-5.032-4.75-6.98-1.865-1.942-4.125-3.505-6.792-4.687q-3.984-1.79-8.562-1.792c-3.875 0-7.427.974-10.646 2.917q-4.94 2.922-8.104 8-.9 1.647-2.542 2.146-1.65.5-3.292-.375-1.524-.892-1.979-2.604-.438-1.705.458-3.355 4.062-7.227 11.021-11.292 6.975-4.062 15.083-4.062 6.352.001 11.917 2.416c3.718 1.615 6.979 3.808 9.77 6.584 2.709 2.792 4.839 6.052 6.396 9.77q2.353 5.588 2.354 11.918-.001 6.338-2.354 11.916-2.334 5.586-6.396 9.77a30.2 30.2 0 0 1-9.77 6.73q-5.565 2.397-11.917 2.396c-2.615 0-5.208-.354-7.792-1.062-2.573-.72-5-1.72-7.292-3q-6.958-4.311-11.02-11.396zM265.33 75.446q-1.797 0-3.063-1.25-1.25-1.267-1.25-2.917 0-1.79 1.25-2.979c.844-.802 1.865-1.208 3.063-1.208h59.208c1.177 0 2.151.406 2.917 1.208.76.792 1.146 1.787 1.146 2.98 0 1.098-.386 2.072-1.146 2.916q-1.15 1.25-2.917 1.25zm0 16.875q-1.797.001-3.063-1.208-1.25-1.204-1.25-2.854 0-1.768 1.25-3.042 1.266-1.268 3.063-1.27h21.041c1.177 0 2.193.426 3.042 1.27.844.849 1.271 1.864 1.271 3.041v67.585c0 1.183-.427 2.198-1.271 3.042-.849.844-1.865 1.27-3.042 1.27-1.099 0-2.093-.427-2.979-1.27q-1.334-1.267-1.333-3.042V92.322zm59.208-8.375c1.177 0 2.151.427 2.917 1.27.76.85 1.146 1.865 1.146 3.043 0 1.098-.386 2.052-1.146 2.854q-1.15 1.21-2.917 1.208h-17v63.521c0 1.182-.427 2.198-1.271 3.042-.833.844-1.849 1.271-3.041 1.271-1.099 0-2.073-.427-2.917-1.271q-1.25-1.268-1.25-3.042V88.258q0-1.767 1.25-3.042c.844-.843 1.818-1.27 2.917-1.27zM390.32 151.65c1.193 0 2.209.428 3.042 1.271.844.849 1.271 1.865 1.271 3.042 0 1.099-.427 2.073-1.271 2.917-.833.843-1.849 1.27-3.042 1.27h-43.854c-1.099 0-2.073-.427-2.917-1.27q-1.272-1.267-1.271-2.917V71.129c0-1.177.422-2.167 1.271-2.958.844-.802 1.818-1.209 2.917-1.209h43.854c1.193 0 2.209.407 3.042 1.209.844.791 1.271 1.78 1.271 2.958 0 1.198-.427 2.219-1.271 3.063q-1.251 1.25-3.042 1.25h-39.541v76.208zm0-67.708c1.193 0 2.209.406 3.042 1.208.844.808 1.271 1.802 1.271 2.98 0 1.099-.427 2.073-1.271 2.916q-1.251 1.273-3.042 1.271h-22.688v8.5h14.834c1.177 0 2.192.428 3.041 1.27.844.835 1.271 1.85 1.271 3.043 0 1.099-.427 2.073-1.271 2.917q-1.274 1.25-3.041 1.25h-19.022q-1.774 0-3.041-1.25-1.272-1.267-1.271-2.917v-17q-.001-1.767 1.271-2.98c.844-.802 1.859-1.208 3.041-1.208zm-7.854 33.855c1.177 0 2.193.406 3.042 1.208.844.808 1.271 1.803 1.271 2.98 0 1.182-.427 2.198-1.271 3.041q-1.275 1.272-3.042 1.271h-14.833v8.375h22.688c1.193 0 2.208.427 3.042 1.271.843.833 1.27 1.844 1.27 3.021 0 1.114-.427 2.093-1.27 2.937q-1.252 1.25-3.042 1.25h-26.875q-1.775 0-3.041-1.25-1.272-1.266-1.271-2.937v-16.979q-.001-1.767 1.271-2.979c.843-.802 1.859-1.209 3.041-1.209zM408.9 162.87c-1.474 0-2.781-.573-3.916-1.708q-1.688-1.705-1.688-3.917 0-2.374 1.688-4.083c1.135-1.136 2.442-1.709 3.916-1.709h22.479q9.018.001 15.229-3.833 6.226-3.829 9.459-10.292 3.25-6.476 3.25-14.312V43.328q0-2.39 1.687-4 1.706-1.625 4.104-1.625c1.584 0 2.907.542 3.98 1.625q1.625 1.61 1.625 4v79.688q0 10.899-4.688 19.938-4.671 9.024-13.437 14.478-8.773 5.438-21.208 5.438zm27.771-119.54q0-2.39 1.688-4 1.704-1.625 3.916-1.625 2.39 0 4 1.625 1.625 1.61 1.625 4v79.688c0 4.89-1.677 8.953-5.02 12.187q-5.025 4.834-12.167 4.833h-20.104c-1.583 0-2.948-.562-4.083-1.687q-1.71-1.705-1.709-3.917c0-1.594.568-2.958 1.709-4.083 1.135-1.136 2.5-1.708 4.083-1.708h20.104c1.583 0 2.969-.506 4.167-1.521q1.79-1.54 1.791-4.104zM544.11 1.27c1.135-1.135 2.442-1.708 3.916-1.708q2.228.001 3.917 1.354 1.374 1.71 1.458 3.938c.053 1.474-.312 2.77-1.104 3.896l-17.208 18.063q-1.709 1.688-3.833 1.875c-1.417.114-2.698-.402-3.833-1.542q-1.71-1.539-1.709-3.75 0-2.204 1.375-3.75zm-46.146 157q-1.022 2.211-3.145 3.063-2.126.853-4.355.166c-1.364-.677-2.354-1.729-2.979-3.145q-.937-2.124-.25-4.334l46.5-116.14c.568-1.583 1.589-2.656 3.063-3.229q2.203-.852 4.25 0 1.375.335 2.125 1.27c.51.626.88 1.282 1.104 1.96l46.333 116.14q.852 2.209 0 4.333c-.573 1.416-1.593 2.468-3.062 3.146q-2.235.686-4.438-.167-2.211-.852-3.062-3.063L539.006 54.9zm32.708-29.458q-2.234.001-3.937-1.709c-1.125-1.135-1.688-2.5-1.688-4.083s.563-2.917 1.688-4q1.703-1.625 3.937-1.625h8.167l-5.104-12.604c-.458-1.469-.406-2.943.167-4.417.567-1.468 1.531-2.437 2.895-2.895q2.376-.852 4.5 0 2.143.857 2.98 2.895l8.354 20.437c.333.683.5 1.417.5 2.21 0 1.582-.599 2.947-1.792 4.082q-1.774 1.71-4.167 1.708zm-8.354 29.458q-.687 2.211-2.812 3.063c-1.417.568-2.927.625-4.521.166-1.474-.677-2.495-1.729-3.063-3.145q-.86-2.124 0-4.334l4.105-10.396c1.234-2.385 2.989-3.583 5.27-3.583h35.251c1.25 0 2.38.406 3.396 1.208 1.026.792 1.713 1.761 2.062 2.896l4.084 9.875q.85 2.21 0 4.334c-.573 1.416-1.594 2.468-3.063 3.145-1.489.46-2.969.401-4.437-.166q-2.211-.852-3.063-3.063l-2.729-6.646h-27.584z"/></g><defs><clipPath id="a"><path fill="#fff" d="M0 0h591v163H0z"/></clipPath></defs></svg>