<?xml version="1.0" encoding="UTF-8"?>
<svg fill="none" viewBox="0 0 591 163" xmlns="http://www.w3.org/2000/svg">
<g clip-path="url(#a)" fill="#fff">
<path d="m8.0987 155.84c0 1.349-0.42708 2.385-1.2708 3.104-0.84896 0.719-1.8437 1.083-2.9792 1.083-1.1406 0-2.1355-0.364-2.9792-1.083-0.84896-0.719-1.2708-1.755-1.2708-3.104v-84.437c0-1.276 0.42188-2.3125 1.2708-3.1041 0.84375-0.8021 1.8177-1.2083 2.9167-1.2083h33.459c5.5 0 10.214 1.0781 14.145 3.2292 3.9271 2.1562 7.0522 4.9896 9.375 8.5 2.3333 3.5 3.8958 7.3697 4.6874 11.604 0.8021 4.224 0.8021 8.4271 0 12.604-0.7916 4.182-2.3749 8.031-4.75 11.541-2.3645 3.516-5.4896 6.349-9.3749 8.5-3.8907 2.157-8.5833 3.229-14.083 3.229h-12.167v29.542c0 1.349-0.448 2.385-1.3334 3.104-0.8906 0.719-1.8854 1.083-2.9792 1.083-1.0989 0-2.0937-0.364-2.9792-1.083-0.8906-0.719-1.3333-1.755-1.3333-3.104v-33.855c0-1.177 0.4427-2.172 1.3333-2.979 0.8854-0.802 1.8803-1.208 2.9792-1.208h16.479c4.5677 0 8.3541-1.011 11.354-3.042 3-2.026 5.2552-4.646 6.7708-7.854 1.526-3.219 2.2918-6.646 2.2918-10.271 0-3.6354-0.7657-7.0625-2.2918-10.271-1.5156-3.2082-3.7708-5.8229-6.7708-7.8541-3-2.0416-6.7864-3.0625-11.354-3.0625h-29.145l-3.7e-4 80.396zm27.625-46.541h-3.75c-1.3906 0-2.6145-0.271-3.6666-0.813-1.0573-0.552-1.5834-1.672-1.5834-3.354 0-1.776 0.5261-2.937 1.5834-3.479 1.052-0.552 2.276-0.813 3.6666-0.771 1.4011 0.042 2.6511 0.062 3.75 0.062 1.4427 0 2.5416-0.421 3.2918-1.2704 0.7604-0.8437 1.1458-1.8385 1.1458-2.9792 0-1.1354-0.3854-2.1302-1.1458-2.9792-0.75-0.8437-1.849-1.2708-3.2918-1.2708h-14.959c-1.349 0-2.3855-0.4219-3.1042-1.2708-0.7239-0.8438-1.0833-1.8385-1.0833-2.9792 0-1.1354 0.3594-2.1303 1.0833-2.9792 0.7188-0.8438 1.7552-1.2708 3.1042-1.2708h14.959c3.3855 0 6.0938 0.8489 8.1251 2.5416 2.026 1.6978 3.3959 3.8125 4.1041 6.3541 0.7188 2.5312 0.7188 5.0625 0 7.6039-0.7083 2.531-2.0781 4.641-4.1041 6.334-2.0312 1.682-4.7396 2.521-8.1251 2.521z"/>
<path d="m88.858 155.97c0 1.349-0.4271 2.385-1.2709 3.104-0.8489 0.719-1.8437 1.083-2.9792 1.083-1.1406 0-2.1354-0.364-2.9792-1.083-0.8489-0.719-1.2708-1.755-1.2708-3.104v-84.834c0-1.177 0.4427-2.1666 1.3333-2.9584 0.8854-0.802 1.8803-1.2083 2.9792-1.2083h33.333c5.167 0 9.776 1.1406 13.834 3.4167 4.052 2.2812 7.364 5.2812 9.937 9 2.583 3.724 4.276 7.8281 5.083 12.312 0.802 4.474 0.568 8.974-0.708 13.5-1.266 4.516-3.708 8.635-7.333 12.354-1.865 1.865-3.917 3.453-6.167 4.771-2.24 1.307-4.625 2.292-7.167 2.958l19.667 28.146c0.76 1.099 0.99 2.203 0.688 3.312-0.292 1.099-0.886 1.959-1.771 2.584-0.891 0.635-1.886 0.916-2.979 0.833-1.099-0.083-2.032-0.677-2.792-1.771l-23.459-33.604c-1.265-1.693-1.453-3.276-0.562-4.75 0.885-1.484 2.13-2.229 3.729-2.229 3.719 0 7.021-0.818 9.896-2.459 2.875-1.651 5.239-3.812 7.104-6.479 1.859-2.666 3.062-5.625 3.604-8.8747 0.552-3.25 0.365-6.4792-0.563-9.6874-0.932-3.2188-2.708-6.1355-5.333-8.75-1.849-1.9427-4.041-3.4427-6.583-4.5-2.542-1.0677-5.25-1.6042-8.125-1.6042h-29.146l1e-4 80.521zm27.75-46.667c-0.584 0-1.261 0.021-2.021 0.063-0.766 0.041-1.479 0.021-2.146-0.063-2.208-0.166-3.698-0.922-4.458-2.271-0.75-1.359-0.771-2.713-0.063-4.062 0.719-1.344 2.229-2.021 4.521-2.021 1.344 0 2.672-0.021 3.979-0.062 1.318-0.042 2.417-0.36 3.292-0.9588 0.885-0.5937 1.333-1.6926 1.333-3.2917 0-1.276-0.448-2.3125-1.333-3.1041-0.875-0.8021-1.912-1.2084-3.104-1.2084h-15.083c-1.349 0-2.3853-0.4218-3.104-1.2708-0.7239-0.8437-1.0833-1.8385-1.0833-2.9792 0-1.1354 0.3594-2.1303 1.0833-2.9792 0.7188-0.8437 1.755-1.2708 3.104-1.2708h15.083c2.625 0 4.885 0.6406 6.792 1.9167 1.901 1.2656 3.38 2.8697 4.437 4.8125 1.052 1.9478 1.583 4.0156 1.583 6.2082 0 3.5416-1.27 6.5206-3.812 8.9376-2.531 2.406-5.531 3.604-9 3.604zm7.875 44.126c0.76 1.098 0.989 2.203 0.687 3.312-0.291 1.099-0.885 1.958-1.771 2.583-0.89 0.636-1.885 0.917-2.979 0.834-1.099-0.084-2.073-0.677-2.916-1.771l-11.667-16.875v14.459c0 1.349-0.427 2.385-1.271 3.104-0.849 0.719-1.844 1.083-2.979 1.083-1.141 0-2.1356-0.364-2.9793-1.083-0.849-0.719-1.2709-1.755-1.2709-3.104v-27.645c0-1.511 0.4844-2.651 1.4584-3.417 0.9688-0.76 2.0678-1.104 3.2918-1.021 1.234 0.083 2.234 0.677 3 1.771l19.396 27.77z"/>
<path d="m251.38 98.905c0.344 1.0991 0.261 2.1821-0.25 3.2501-0.5 1.057-1.348 1.75-2.541 2.083-1.099 0.334-2.198 0.229-3.292-0.312-1.099-0.552-1.812-1.381-2.146-2.48-2.708-8.2755-7.614-15-14.708-20.166-3.307-2.3593-6.989-4.2136-11.041-5.5625-4.058-1.3593-8.328-2.0416-12.813-2.0416-7.515 0-13.979 1.4375-19.396 4.3125-5.406 2.875-9.739 6.6615-13 11.354-3.25 4.6978-5.406 9.8749-6.458 15.542-1.058 5.656-1.058 11.312 0 16.978 1.052 5.667 3.208 10.849 6.458 15.542 3.261 4.682 7.594 8.458 13 11.333 5.417 2.875 11.88 4.313 19.396 4.313 4.485 0 8.755-0.672 12.813-2.021 4.052-1.36 7.734-3.219 11.041-5.584 7.094-4.984 12-11.708 14.708-20.166 0.334-1.177 1.047-2.021 2.146-2.521 1.094-0.51 2.193-0.604 3.292-0.271 1.193 0.349 2.041 1.052 2.541 2.104 0.511 1.058 0.594 2.177 0.25 3.354-1.598 4.907-3.927 9.474-6.979 13.708-3.041 4.224-6.635 7.813-10.771 10.771-4.14 2.875-8.64 5.156-13.5 6.834-4.864 1.692-10.041 2.541-15.541 2.541-8.031 0-15.063-1.354-21.104-4.062-6.041-2.709-11.073-6.36-15.083-10.959-4.015-4.609-7.015-9.792-9-15.541-1.989-5.75-2.979-11.688-2.979-17.812 0-6.125 0.99-12.063 2.979-17.812 1.985-5.75 4.985-10.922 9-15.521 4.011-4.6093 9.042-8.2708 15.083-10.979s13.073-4.0625 21.104-4.0625c5.5 0 10.677 0.8073 15.541 2.4167 4.86 1.6145 9.36 3.8958 13.5 6.8541 4.136 3.0416 7.73 6.6563 10.771 10.833 3.052 4.1823 5.381 8.7656 6.979 13.749v0.0016zm-72.896 29.812c-0.598-1.11-0.75-2.214-0.458-3.313 0.302-1.093 0.964-1.937 1.979-2.52 1.094-0.594 2.193-0.74 3.292-0.438 1.094 0.292 1.943 0.99 2.542 2.083 1.01 1.599 2.213 3.099 3.604 4.5 1.401 1.391 2.901 2.553 4.5 3.48 3.219 2.031 6.771 3.041 10.646 3.041 3.052 0 5.906-0.568 8.562-1.708 2.667-1.136 4.927-2.719 6.792-4.75 2.026-1.943 3.609-4.271 4.75-6.979 1.135-2.709 1.708-5.625 1.708-8.75 0-3.042-0.573-5.907-1.708-8.604-1.141-2.709-2.724-5.0316-4.75-6.9796-1.865-1.9427-4.125-3.5052-6.792-4.6875-2.656-1.1927-5.51-1.7917-8.562-1.7917-3.875 0-7.427 0.9739-10.646 2.9166-3.292 1.9479-5.995 4.6146-8.104 8.0002-0.599 1.099-1.448 1.812-2.542 2.146-1.099 0.333-2.198 0.208-3.292-0.375-1.015-0.594-1.677-1.464-1.979-2.604-0.292-1.136-0.14-2.2556 0.458-3.3546 2.709-4.8177 6.381-8.5833 11.021-11.292 4.651-2.7083 9.677-4.0625 15.083-4.0625 4.234 0 8.208 0.8073 11.917 2.4166 3.718 1.6146 6.979 3.8074 9.77 6.5834 2.709 2.7917 4.839 6.0521 6.396 9.7708 1.568 3.724 2.354 7.698 2.354 11.917 0 4.224-0.786 8.198-2.354 11.916-1.557 3.724-3.687 6.98-6.396 9.771-2.791 2.875-6.052 5.12-9.77 6.729-3.709 1.599-7.683 2.396-11.917 2.396-2.615 0-5.208-0.354-7.792-1.062-2.573-0.719-5-1.719-7.292-3-4.64-2.875-8.311-6.672-11.02-11.396z"/>
<path d="m265.33 75.446c-1.198 0-2.219-0.4166-3.063-1.25-0.833-0.8437-1.25-1.8177-1.25-2.9166 0-1.1927 0.417-2.1875 1.25-2.9792 0.844-0.8021 1.865-1.2084 3.063-1.2084h59.208c1.177 0 2.151 0.4063 2.917 1.2084 0.76 0.7916 1.146 1.7864 1.146 2.9792 0 1.0989-0.386 2.0729-1.146 2.9166-0.766 0.8334-1.74 1.25-2.917 1.25h-59.208zm0 16.875c-1.198 0-2.219-0.401-3.063-1.2083-0.833-0.8021-1.25-1.7552-1.25-2.8542 0-1.177 0.417-2.1926 1.25-3.0416 0.844-0.8437 1.865-1.2708 3.063-1.2708h21.041c1.177 0 2.193 0.4271 3.042 1.2708 0.844 0.849 1.271 1.8646 1.271 3.0416v67.584c0 1.183-0.427 2.198-1.271 3.042-0.849 0.844-1.865 1.271-3.042 1.271-1.099 0-2.093-0.427-2.979-1.271-0.89-0.844-1.333-1.859-1.333-3.042v-63.521l-16.729-2e-4zm59.208-8.3749c1.177 0 2.151 0.4271 2.917 1.2708 0.76 0.849 1.146 1.8645 1.146 3.0416 0 1.099-0.386 2.0521-1.146 2.8541-0.766 0.8073-1.74 1.2084-2.917 1.2084h-17v63.521c0 1.182-0.427 2.198-1.271 3.042-0.833 0.844-1.849 1.271-3.041 1.271-1.099 0-2.073-0.427-2.917-1.271-0.833-0.844-1.25-1.86-1.25-3.042v-67.584c0-1.1771 0.417-2.1927 1.25-3.0416 0.844-0.8437 1.818-1.2708 2.917-1.2708l21.312 2e-4z"/>
<path d="m390.32 151.65c1.193 0 2.209 0.428 3.042 1.271 0.844 0.849 1.271 1.865 1.271 3.042 0 1.099-0.427 2.073-1.271 2.917-0.833 0.843-1.849 1.27-3.042 1.27h-43.854c-1.099 0-2.073-0.427-2.917-1.27-0.849-0.844-1.271-1.818-1.271-2.917v-84.834c0-1.177 0.422-2.1666 1.271-2.9584 0.844-0.802 1.818-1.2083 2.917-1.2083h43.854c1.193 0 2.209 0.4063 3.042 1.2083 0.844 0.7917 1.271 1.7812 1.271 2.9584 0 1.198-0.427 2.2188-1.271 3.0626-0.833 0.8333-1.849 1.25-3.042 1.25h-39.541v76.208h39.541zm0-67.708c1.193 0 2.209 0.4063 3.042 1.2084 0.844 0.8073 1.271 1.8021 1.271 2.9792 0 1.0989-0.427 2.0729-1.271 2.9166-0.833 0.849-1.849 1.2709-3.042 1.2709h-22.688v8.4995h14.834c1.177 0 2.192 0.428 3.041 1.271 0.844 0.834 1.271 1.849 1.271 3.042 0 1.099-0.427 2.073-1.271 2.917-0.849 0.833-1.864 1.25-3.041 1.25h-19.022c-1.182 0-2.197-0.417-3.041-1.25-0.849-0.844-1.271-1.818-1.271-2.917v-17c0-1.1771 0.422-2.1719 1.271-2.9792 0.844-0.8021 1.859-1.2083 3.041-1.2083h26.876zm-7.854 33.855c1.177 0 2.193 0.406 3.042 1.208 0.844 0.808 1.271 1.803 1.271 2.98 0 1.182-0.427 2.198-1.271 3.041-0.849 0.849-1.865 1.271-3.042 1.271h-14.833v8.375h22.688c1.193 0 2.208 0.427 3.042 1.271 0.843 0.833 1.27 1.844 1.27 3.021 0 1.114-0.427 2.093-1.27 2.937-0.834 0.833-1.849 1.25-3.042 1.25h-26.875c-1.182 0-2.198-0.417-3.041-1.25-0.849-0.844-1.271-1.823-1.271-2.937v-16.979c0-1.177 0.422-2.172 1.271-2.979 0.843-0.802 1.859-1.209 3.041-1.209h19.02z"/>
<path d="m408.9 162.87c-1.474 0-2.781-0.573-3.916-1.708-1.125-1.136-1.688-2.443-1.688-3.917 0-1.583 0.563-2.943 1.688-4.083 1.135-1.136 2.442-1.709 3.916-1.709h22.479c6.011 0 11.089-1.276 15.229-3.833 4.152-2.552 7.303-5.984 9.459-10.292 2.167-4.317 3.25-9.088 3.25-14.312v-79.688c0-1.5938 0.562-2.9271 1.687-4 1.136-1.0834 2.506-1.6251 4.104-1.6251 1.584 0 2.907 0.5417 3.98 1.6251 1.083 1.0729 1.625 2.4062 1.625 4v79.688c0 7.266-1.563 13.912-4.688 19.938-3.114 6.015-7.593 10.843-13.437 14.478-5.849 3.625-12.917 5.438-21.208 5.438h-22.48zm27.771-119.54c0-1.5937 0.563-2.927 1.688-4 1.135-1.0833 2.442-1.625 3.916-1.625 1.594 0 2.927 0.5416 4 1.625 1.084 1.073 1.625 2.4063 1.625 4v79.688c0 4.89-1.677 8.953-5.02 12.187-3.349 3.224-7.407 4.833-12.167 4.833h-20.104c-1.583 0-2.948-0.562-4.083-1.687-1.141-1.136-1.709-2.443-1.709-3.917 0-1.594 0.568-2.958 1.709-4.083 1.135-1.136 2.5-1.708 4.083-1.708h20.104c1.583 0 2.969-0.506 4.167-1.521 1.192-1.026 1.791-2.396 1.791-4.104v-79.688z"/>
<path d="m544.11 1.2703c1.135-1.1354 2.442-1.7083 3.916-1.7083 1.485 0 2.792 0.45312 3.917 1.3541 0.917 1.1406 1.401 2.4531 1.458 3.9375 0.053 1.474-0.312 2.7708-1.104 3.8959l-17.208 18.063c-1.14 1.125-2.416 1.7501-3.833 1.875-1.417 0.1146-2.698-0.4011-3.833-1.5416-1.141-1.0261-1.709-2.276-1.709-3.75 0-1.4688 0.459-2.7188 1.375-3.75l17.021-18.375zm-46.146 157c-0.682 1.474-1.729 2.495-3.145 3.063-1.417 0.568-2.87 0.625-4.355 0.166-1.364-0.677-2.354-1.729-2.979-3.145-0.625-1.417-0.708-2.86-0.25-4.334l46.5-116.14c0.568-1.5834 1.589-2.6563 3.063-3.2292 1.469-0.5678 2.885-0.5678 4.25 0 0.916 0.2239 1.625 0.6458 2.125 1.2708 0.51 0.625 0.88 1.2812 1.104 1.9584l46.333 116.14c0.568 1.474 0.568 2.917 0 4.334-0.573 1.416-1.593 2.468-3.062 3.146-1.49 0.458-2.969 0.401-4.438-0.167-1.474-0.568-2.495-1.589-3.062-3.063l-41.042-103.37-41.042 103.37zm32.708-29.458c-1.489 0-2.802-0.568-3.937-1.709-1.125-1.135-1.688-2.5-1.688-4.083s0.563-2.917 1.688-4c1.135-1.083 2.448-1.625 3.937-1.625h8.167l-5.104-12.604c-0.458-1.469-0.406-2.943 0.167-4.417 0.567-1.4687 1.531-2.4373 2.895-2.8957 1.584-0.5677 3.084-0.5677 4.5 0 1.428 0.5729 2.422 1.5364 2.98 2.8957l8.354 20.437c0.333 0.683 0.5 1.417 0.5 2.209 0 1.583-0.599 2.948-1.792 4.083-1.182 1.141-2.573 1.708-4.167 1.708l-16.5 1e-3zm-8.354 29.458c-0.458 1.474-1.396 2.495-2.812 3.063-1.417 0.568-2.927 0.625-4.521 0.166-1.474-0.677-2.495-1.729-3.063-3.145-0.573-1.417-0.573-2.86 0-4.334l4.105-10.396c1.234-2.385 2.989-3.583 5.27-3.583h35.251c1.25 0 2.38 0.406 3.396 1.208 1.026 0.792 1.713 1.761 2.062 2.896l4.084 9.875c0.567 1.474 0.567 2.917 0 4.334-0.573 1.416-1.594 2.468-3.063 3.145-1.489 0.459-2.969 0.401-4.437-0.166-1.474-0.568-2.495-1.589-3.063-3.063l-2.729-6.646h-27.584l-2.896 6.646z"/>
</g>
<defs>
<clipPath id="a">
<rect width="591" height="163" fill="#fff"/>
</clipPath>
</defs>
</svg>
